<?xml version="1.0" standalone="no"?>
<!DOCTYPE svg PUBLIC "-//W3C//DTD SVG 20010904//EN"
 "http://www.w3.org/TR/2001/REC-SVG-20010904/DTD/svg10.dtd">
<svg version="1.0" xmlns="http://www.w3.org/2000/svg"
 width="229.000000pt" height="220.000000pt" viewBox="0 0 229.000000 220.000000"
 preserveAspectRatio="xMidYMid meet">

<g transform="translate(0.000000,220.000000) scale(0.100000,-0.100000)"
fill="#000000" stroke="none">
<path d="M1040 2094 c-159 -19 -215 -29 -294 -55 -50 -16 -106 -38 -125 -48
l-33 -18 -49 49 c-46 46 -50 48 -104 48 -47 0 -60 -4 -79 -25 -46 -49 -40
-128 15 -197 l30 -37 -28 -6 c-44 -10 -207 -66 -216 -75 -5 -4 -6 -28 -2 -53
6 -38 12 -47 34 -55 25 -9 27 -16 43 -117 10 -59 28 -131 42 -161 25 -54 25
-58 16 -192 -11 -172 -16 -408 -12 -669 l2 -203 441 0 440 0 -3 85 c-2 47 0
85 5 85 7 0 11 -68 8 -133 -2 -23 2 -37 9 -37 8 0 11 25 8 85 -2 72 -1 84 12
80 8 -4 11 -3 8 1 -4 3 -1 13 7 21 13 12 18 12 35 0 11 -7 17 -17 12 -22 -4
-5 -2 -5 5 -1 8 4 9 16 3 36 -10 34 -1 44 41 49 5 0 7 6 4 11 -4 6 -11 8 -16
5 -5 -3 -6 1 -3 9 3 9 10 14 14 11 8 -5 22 36 15 44 -3 2 -5 -1 -5 -7 0 -7 -6
-12 -12 -12 -7 -1 -22 -20 -34 -43 -34 -71 -130 -107 -207 -78 -20 8 -23 6
-23 -12 1 -22 -2 -22 -176 -25 l-178 -2 0 70 0 70 60 0 c33 0 76 6 95 14 66
28 89 104 45 151 -25 27 -132 65 -181 65 l-29 0 0 70 0 70 188 -2 187 -3 -2
-75 -2 -75 74 0 c86 0 116 -16 151 -83 20 -38 22 -39 26 -17 3 13 2 22 -2 20
-14 -9 -29 20 -20 35 15 23 12 34 -5 20 -12 -10 -16 -9 -21 3 -3 8 -25 20 -50
27 -24 7 -44 17 -44 22 0 6 9 8 20 5 11 -3 20 -1 20 3 0 5 -10 10 -22 12 -26
3 -34 38 -23 95 5 26 11 33 28 33 13 0 17 -3 11 -8 -21 -14 -38 -77 -26 -98
10 -16 11 -13 12 24 0 41 1 42 33 43 30 1 30 2 7 8 -36 10 96 23 149 15 26 -4
41 -3 41 4 0 11 -41 17 -215 29 -107 8 -110 9 -123 36 l-13 27 -197 -2 c-196
-3 -197 -3 -200 -25 -2 -13 -8 -23 -13 -23 -5 0 -9 -9 -9 -20 0 -14 -9 -21
-37 -25 -74 -12 -248 -45 -272 -52 l-24 -6 7 154 c4 85 10 162 12 172 5 15 12
11 51 -23 58 -51 122 -70 233 -70 142 0 268 34 309 84 18 21 31 20 31 -1 1
-28 25 -52 58 -59 25 -5 31 -12 37 -41 9 -52 36 -73 93 -73 26 0 52 4 58 8 16
11 31 42 38 86 4 21 10 36 12 33 14 -14 67 18 76 44 l10 29 34 -30 c71 -62
114 -74 278 -78 165 -4 206 5 262 57 l31 29 7 -75 c3 -42 6 -127 6 -190 0 -69
4 -113 10 -113 6 0 10 -5 10 -11 0 -5 -4 -7 -10 -4 -5 3 -10 0 -11 -7 0 -7 -5
-1 -10 13 -13 34 -98 64 -136 46 l-25 -11 28 -8 c15 -4 39 -5 52 -1 32 8 69
-14 77 -46 4 -14 10 -20 12 -13 3 6 12 12 20 12 14 0 15 25 10 229 -5 213 -4
230 14 257 28 43 51 117 69 224 15 90 17 95 42 98 23 3 26 9 32 54 4 28 3 54
-1 58 -13 11 -182 70 -202 70 -29 0 -43 23 -27 46 7 10 21 40 29 65 21 62 8
112 -36 139 -58 36 -126 20 -186 -43 l-34 -36 -51 26 c-73 37 -177 71 -270 88
-86 15 -258 26 -316 19z m307 -49 c141 -27 290 -87 367 -148 l29 -23 -60 4
c-79 6 -173 -20 -248 -67 -33 -21 -89 -52 -125 -70 -62 -32 -66 -33 -117 -21
-42 10 -61 10 -97 0 -45 -12 -48 -11 -118 25 -40 21 -95 52 -123 70 -80 52
-143 68 -246 63 l-89 -4 23 24 c55 59 240 133 377 151 112 15 341 12 427 -4z
m-859 -19 c15 -8 36 -27 48 -43 l21 -28 -28 -22 -27 -23 -6 35 c-8 40 -26 47
-26 10 0 -22 -2 -24 -26 -15 -31 12 -34 12 -34 0 0 -5 16 -17 35 -26 41 -19
41 -21 14 -53 -24 -29 -41 -23 -76 29 -28 40 -31 105 -6 132 19 22 73 24 111
4z m1396 -17 c30 -24 34 -66 12 -121 -23 -54 -38 -62 -70 -37 -32 25 -26 39
20 39 19 0 34 5 34 10 0 6 -16 10 -35 10 -33 0 -34 1 -25 26 22 57 3 61 -23 4
-10 -22 -22 -40 -25 -40 -4 0 -20 10 -35 23 l-29 22 23 29 c24 30 70 55 105
56 12 0 33 -9 48 -21z m-1149 -174 l40 -14 -40 5 c-22 3 -78 5 -125 6 -51 1
-77 4 -65 9 32 12 147 9 190 -6z m1027 -4 c15 -3 -32 -7 -105 -7 -72 -1 -127
0 -121 2 51 20 154 22 226 5z m-1004 -77 c42 -8 96 -24 118 -34 36 -15 45 -25
63 -74 28 -76 28 -185 0 -260 -25 -69 -91 -143 -161 -181 -47 -26 -63 -30
-138 -30 -72 0 -94 5 -145 28 -87 41 -117 68 -150 133 -25 52 -29 72 -32 169
-5 126 6 158 68 207 67 54 232 72 377 42z m1084 -15 c81 -27 138 -98 138 -173
l0 -35 -25 24 c-24 25 -59 32 -83 16 -10 -6 -8 -10 8 -14 25 -6 22 -30 -3 -35
-11 -2 -21 6 -26 20 -8 22 -9 22 -27 -15 -17 -36 -17 -38 3 -65 15 -21 30 -28
62 -30 45 -3 67 8 82 43 12 27 0 -81 -13 -115 -26 -71 -68 -117 -136 -151 -57
-28 -80 -34 -154 -37 -76 -3 -94 -1 -141 21 -70 32 -132 94 -166 166 -23 49
-26 68 -26 156 0 84 4 108 23 146 22 44 26 47 95 67 40 11 81 23 92 26 36 9
259 -2 297 -15z m-642 -134 c31 -16 40 -34 18 -36 -10 0 -10 -2 0 -6 7 -3 12
-26 12 -62 0 -32 6 -79 14 -104 8 -26 10 -47 6 -47 -4 0 -10 10 -14 23 -10 42
-110 59 -180 31 -16 -6 -18 -4 -12 12 4 10 10 56 13 101 5 77 7 83 32 92 39
14 79 13 111 -4z m62 -312 c20 -19 28 -37 28 -60 0 -42 -15 -48 -88 -36 -32 5
-73 5 -92 1 -85 -20 -110 -19 -119 5 -9 24 2 62 26 89 14 15 17 15 49 -4 43
-25 107 -20 138 11 26 26 24 26 58 -6z m-132 -190 c0 -46 -2 -48 -31 -33 -26
14 -27 87 -1 92 24 5 32 -10 32 -59z m70 28 c0 -37 -19 -71 -41 -71 -5 0 -9
25 -9 55 0 52 1 55 25 55 22 0 25 -4 25 -39z m647 -277 c-3 -3 -12 -4 -19 -1
-8 3 -5 6 6 6 11 1 17 -2 13 -5z m-1064 -100 c97 -23 124 -53 96 -106 -20 -37
-69 -48 -213 -48 l-136 0 -6 25 c-8 32 3 92 24 128 17 28 17 28 97 22 44 -4
106 -13 138 -21z"/>
<path d="M771 1534 c-35 -29 -40 -66 -15 -102 35 -51 109 -48 133 4 42 93 -42
163 -118 98z m46 -20 c8 -22 -18 -37 -36 -20 -7 8 -10 19 -7 25 10 16 36 13
43 -5z"/>
<path d="M590 710 c0 -5 7 -10 15 -10 8 0 15 5 15 10 0 6 -7 10 -15 10 -8 0
-15 -4 -15 -10z"/>
<path d="M653 713 c9 -2 23 -2 30 0 6 3 -1 5 -18 5 -16 0 -22 -2 -12 -5z"/>
<path d="M620 670 c0 -5 4 -10 9 -10 6 0 13 5 16 10 3 6 -1 10 -9 10 -9 0 -16
-4 -16 -10z"/>
<path d="M1448 953 c7 -3 16 -2 19 1 4 3 -2 6 -13 5 -11 0 -14 -3 -6 -6z"/>
<path d="M1475 941 c-11 -5 -33 -10 -50 -11 -16 -1 -24 -4 -18 -7 15 -6 5 -18
-40 -46 -18 -12 -26 -24 -23 -34 4 -9 -1 -17 -14 -20 -11 -3 -18 -9 -15 -13 3
-4 -2 -13 -9 -19 -11 -9 -16 -9 -22 0 -5 8 -3 9 6 4 9 -6 11 -4 5 5 -6 9 -4
11 5 5 9 -5 11 -4 6 4 -4 7 2 15 16 20 22 10 22 10 -4 8 -15 -1 -24 -5 -22 -9
8 -12 -41 -27 -67 -21 -19 4 -21 3 -9 -6 8 -6 25 -11 36 -11 24 0 49 -24 40
-38 -3 -5 1 -17 8 -28 8 -10 11 -25 8 -33 -3 -9 -1 -12 6 -7 7 4 12 3 12 -2 0
-6 17 -17 38 -25 20 -9 31 -16 23 -16 -7 -1 -11 -7 -7 -16 10 -26 -20 -16 -33
11 -15 35 -45 28 -49 -11 -2 -22 0 -26 7 -16 5 8 7 20 4 28 -3 7 2 13 11 13 9
0 16 -8 16 -19 0 -11 6 -22 13 -24 10 -4 10 -6 0 -6 -7 -1 -13 -6 -13 -12 0
-6 5 -7 13 -2 20 13 99 32 135 33 22 0 32 5 32 15 0 15 9 16 133 20 26 1 50 4
53 8 3 3 17 2 30 -3 13 -5 23 -6 23 -2 -1 4 -1 30 0 59 1 46 3 51 21 46 11 -3
20 0 20 6 0 6 -11 11 -24 11 -17 0 -25 7 -28 25 -3 13 -2 22 2 20 5 -3 10 2
14 10 6 16 -22 50 -33 40 -3 -4 3 -13 13 -21 14 -10 15 -14 5 -14 -15 1 -64
70 -49 70 6 0 10 -5 10 -12 0 -6 3 -8 7 -5 3 4 17 0 30 -8 16 -11 29 -13 40
-6 14 7 9 11 -27 21 -25 7 -57 14 -71 16 -14 2 -37 8 -51 13 -39 15 -140 22
-163 12z m130 -21 c2 -4 -21 -13 -53 -19 -38 -7 -58 -8 -60 -1 -2 5 -11 10
-19 10 -9 0 -13 -6 -9 -15 5 -14 -9 -20 -41 -16 -7 1 -13 -2 -13 -7 0 -5 -10
-14 -23 -19 -18 -9 -24 -8 -24 2 0 8 7 11 15 7 9 -3 13 -1 9 5 -6 10 37 29 56
24 5 -1 5 4 1 10 -3 6 -1 15 6 19 17 11 148 11 155 0z m97 -89 c16 -30 28 -69
28 -90 l0 -37 -117 -12 c-141 -15 -193 -15 -227 -2 -34 12 -59 53 -51 80 9 29
112 76 195 90 36 5 79 14 95 19 43 13 47 10 77 -48z m-242 -201 c-14 -4 -34
-8 -45 -8 -16 0 -15 2 5 8 14 4 34 8 45 8 16 0 15 -2 -5 -8z"/>
<path d="M1548 913 c7 -3 16 -2 19 1 4 3 -2 6 -13 5 -11 0 -14 -3 -6 -6z"/>
<path d="M1630 810 c-13 -8 -12 -10 3 -10 9 0 17 5 17 10 0 12 -1 12 -20 0z"/>
<path d="M1553 803 c9 -2 25 -2 35 0 9 3 1 5 -18 5 -19 0 -27 -2 -17 -5z"/>
<path d="M1598 763 c6 -2 18 -2 25 0 6 3 1 5 -13 5 -14 0 -19 -2 -12 -5z"/>
<path d="M1275 921 c-5 -17 -15 -21 -46 -21 -33 0 -39 -3 -39 -21 0 -18 5 -20
43 -17 29 2 42 8 42 18 1 22 16 44 24 32 4 -6 11 -4 19 4 7 8 8 14 3 14 -5 0
-16 3 -24 6 -10 3 -18 -2 -22 -15z"/>
<path d="M1230 830 l-25 -8 25 -1 c14 0 32 4 40 9 13 9 13 10 0 9 -8 -1 -26
-5 -40 -9z"/>
<path d="M1950 773 c-14 -7 -19 -13 -12 -13 8 0 12 -24 13 -82 l1 -83 10 60
c5 33 7 72 5 87 -2 15 1 29 7 31 6 3 9 6 6 9 -3 3 -16 -1 -30 -9z"/>
<path d="M995 700 c-1 -55 1 -60 21 -60 12 0 30 -3 40 -7 13 -5 15 -3 9 8 -5
8 -4 11 0 6 15 -13 15 -39 -1 -33 -10 4 -13 -2 -12 -18 2 -21 5 -22 31 -15 15
4 34 6 41 3 7 -3 18 2 25 10 9 10 20 12 41 6 41 -12 53 6 43 67 -8 48 -9 48
-49 51 -50 4 -71 -15 -54 -47 8 -15 8 -27 0 -42 -14 -25 -34 -20 -38 9 -2 14
-11 22 -23 22 -22 0 -25 22 -5 39 11 9 15 8 20 -4 3 -9 2 -13 -4 -10 -6 3 -10
1 -10 -4 0 -13 27 -15 34 -2 10 16 -6 41 -26 41 -11 0 -22 8 -25 20 -4 14 -14
20 -32 20 -25 0 -26 -2 -26 -60z m204 -56 c4 3 8 -1 8 -9 0 -8 -4 -12 -9 -9
-4 3 -8 0 -8 -5 0 -6 -4 -11 -10 -11 -12 0 -14 83 -2 94 4 4 8 -8 10 -28 2
-20 7 -34 11 -32z"/>
<path d="M1810 720 c0 -29 4 -40 15 -40 11 0 15 11 15 40 0 29 -4 40 -15 40
-11 0 -15 -11 -15 -40z"/>
<path d="M1920 665 c0 -8 5 -15 10 -15 6 0 10 7 10 15 0 8 -4 15 -10 15 -5 0
-10 -7 -10 -15z"/>
<path d="M1710 649 c0 -10 50 -32 57 -25 2 2 -10 11 -26 19 -17 9 -31 11 -31
6z"/>
<path d="M1575 641 l-30 -7 40 -7 c22 -4 51 -7 65 -7 24 1 24 1 6 15 -21 16
-33 17 -81 6z"/>
<path d="M1972 529 c3 -68 2 -97 -1 -64 l-6 60 -7 -50 c-13 -88 -17 -144 -8
-110 5 20 6 11 3 -27 -3 -45 -1 -58 10 -58 10 0 16 21 20 83 11 132 8 275 -4
283 -9 5 -10 -27 -7 -117z"/>
<path d="M1490 610 c-31 -5 -27 -7 29 -14 38 -4 68 -3 73 2 12 12 -53 19 -102
12z"/>
<path d="M1716 607 c3 -10 9 -15 12 -12 3 3 0 11 -7 18 -10 9 -11 8 -5 -6z"/>
<path d="M1171 586 c2 -2 15 -9 29 -15 24 -11 24 -11 6 3 -16 13 -49 24 -35
12z"/>
<path d="M1067 563 c-14 -13 -7 -23 16 -22 19 1 19 2 3 6 -15 4 -16 7 -5 14 8
5 9 9 3 9 -6 0 -14 -3 -17 -7z"/>
<path d="M1100 566 c0 -2 8 -10 17 -17 9 -8 14 -9 10 -2 -4 6 -1 14 5 16 7 3
3 6 -9 6 -13 1 -23 -1 -23 -3z"/>
<path d="M1342 558 c-7 -7 -12 -19 -12 -27 0 -11 5 -8 16 7 18 25 15 39 -4 20z"/>
<path d="M1943 553 c-9 -3 -12 -24 -11 -61 1 -47 2 -50 5 -17 3 22 9 43 15 46
14 9 6 37 -9 32z"/>
<path d="M1220 450 c0 -5 4 -10 9 -10 6 0 13 5 16 10 3 6 -1 10 -9 10 -9 0
-16 -4 -16 -10z"/>
<path d="M1563 313 c-313 -3 -363 -5 -363 -18 0 -13 49 -15 370 -15 363 0 370
0 370 20 0 11 -3 19 -7 18 -5 -2 -171 -4 -370 -5z"/>
</g>
</svg>
